<svg width="24" height="24" viewBox="0 0 24 24" fill="none" xmlns="http://www.w3.org/2000/svg">
<path d="M12 6C5.11095 6 1.5 11.1771 1.5 12C1.5 12.8207 5.11095 18 12 18C18.888 18 22.5 12.8207 22.5 12C22.5 11.1771 18.888 6 12 6ZM12 16.6146C9.42225 16.6146 7.33275 14.5489 7.33275 12C7.33275 9.45107 9.42225 7.38321 12 7.38321C14.5777 7.38321 16.6662 9.45107 16.6662 12C16.6662 14.5489 14.5777 16.6146 12 16.6146ZM12 12C11.5726 11.5211 12.6961 9.69214 12 9.69214C10.7106 9.69214 9.66585 10.7261 9.66585 12C9.66585 13.2739 10.7106 14.3079 12 14.3079C13.2883 14.3079 14.3341 13.2739 14.3341 12C14.3341 11.4139 12.3633 12.4061 12 12Z" fill="#BDBDBD"/>
</svg>
