<svg width="22" height="27" viewBox="0 0 22 27" fill="none" xmlns="http://www.w3.org/2000/svg">
<path d="M11.0002 26.3333C12.4668 26.3333 13.6668 25.1333 13.6668 23.6667H8.3335C8.3335 24.3739 8.61445 25.0522 9.11455 25.5523C9.61464 26.0524 10.2929 26.3333 11.0002 26.3333ZM19.0002 18.3333V11.6667C19.0002 7.57333 16.8135 4.14667 13.0002 3.24V2.33333C13.0002 1.22667 12.1068 0.333332 11.0002 0.333332C9.8935 0.333332 9.00016 1.22667 9.00016 2.33333V3.24C5.1735 4.14667 3.00016 7.56 3.00016 11.6667V18.3333L0.333496 21V22.3333H21.6668V21L19.0002 18.3333Z" fill="#828282"/>
</svg>
