<svg width="24" height="21" viewBox="0 0 24 21" fill="none" xmlns="http://www.w3.org/2000/svg">
<g filter="url(#filter0_d_640_203)">
<path d="M20.71 16.29L17.31 12.9C18.407 11.5025 19.0022 9.77665 19 8C19 6.41775 18.5308 4.87103 17.6518 3.55544C16.7727 2.23984 15.5233 1.21446 14.0615 0.608962C12.5997 0.00346053 10.9911 -0.154966 9.43928 0.153716C7.88743 0.462397 6.46197 1.22432 5.34315 2.34314C4.22433 3.46196 3.4624 4.88743 3.15372 6.43928C2.84504 7.99112 3.00347 9.59966 3.60897 11.0615C4.21447 12.5233 5.23985 13.7727 6.55544 14.6518C7.87103 15.5308 9.41775 16 11 16C12.7767 16.0022 14.5025 15.407 15.9 14.31L19.29 17.71C19.383 17.8037 19.4936 17.8781 19.6154 17.9289C19.7373 17.9797 19.868 18.0058 20 18.0058C20.132 18.0058 20.2627 17.9797 20.3846 17.9289C20.5064 17.8781 20.617 17.8037 20.71 17.71C20.8037 17.617 20.8781 17.5064 20.9289 17.3846C20.9797 17.2627 21.0058 17.132 21.0058 17C21.0058 16.868 20.9797 16.7373 20.9289 16.6154C20.8781 16.4936 20.8037 16.383 20.71 16.29ZM5 8C5 6.81331 5.3519 5.65327 6.01119 4.66658C6.67047 3.67988 7.60755 2.91085 8.7039 2.45672C9.80026 2.00259 11.0067 1.88377 12.1705 2.11529C13.3344 2.3468 14.4035 2.91824 15.2426 3.75736C16.0818 4.59647 16.6532 5.66557 16.8847 6.82946C17.1162 7.99334 16.9974 9.19974 16.5433 10.2961C16.0892 11.3925 15.3201 12.3295 14.3334 12.9888C13.3467 13.6481 12.1867 14 11 14C9.4087 14 7.88258 13.3679 6.75736 12.2426C5.63214 11.1174 5 9.5913 5 8Z" fill="#A6AAB5"/>
</g>
<defs>
<filter id="filter0_d_640_203" x="-1" y="-5.72205e-06" width="26.0059" height="26.0058" filterUnits="userSpaceOnUse" color-interpolation-filters="sRGB">
<feFlood flood-opacity="0" result="BackgroundImageFix"/>
<feColorMatrix in="SourceAlpha" type="matrix" values="0 0 0 0 0 0 0 0 0 0 0 0 0 0 0 0 0 0 127 0" result="hardAlpha"/>
<feOffset dy="4"/>
<feGaussianBlur stdDeviation="2"/>
<feComposite in2="hardAlpha" operator="out"/>
<feColorMatrix type="matrix" values="0 0 0 0 0 0 0 0 0 0 0 0 0 0 0 0 0 0 0.25 0"/>
<feBlend mode="normal" in2="BackgroundImageFix" result="effect1_dropShadow_640_203"/>
<feBlend mode="normal" in="SourceGraphic" in2="effect1_dropShadow_640_203" result="shape"/>
</filter>
</defs>
</svg>
