<svg width="24" height="24" viewBox="0 0 24 24" fill="none" xmlns="http://www.w3.org/2000/svg">
<path d="M21.7133 10.48L19.48 9.81331C19.3256 9.27419 19.1132 8.75337 18.8466 8.25998L19.94 6.21331C19.981 6.13606 19.996 6.04764 19.9828 5.96117C19.9696 5.8747 19.9289 5.79479 19.8666 5.73331L18.2733 4.13331C18.2118 4.07109 18.1319 4.03035 18.0455 4.01714C17.959 4.00393 17.8706 4.01896 17.7933 4.05998L15.76 5.14665C15.2617 4.86709 14.7341 4.6435 14.1866 4.47998L13.52 2.27331C13.4918 2.19199 13.4385 2.12171 13.3678 2.07259C13.2971 2.02348 13.2127 1.99805 13.1266 1.99998H10.8733C10.7867 2.00038 10.7026 2.0284 10.633 2.07996C10.5635 2.13152 10.5122 2.20393 10.4866 2.28665L9.81998 4.48665C9.26799 4.6493 8.73582 4.8729 8.23331 5.15331L6.23331 4.07331C6.15606 4.03229 6.06764 4.01727 5.98117 4.03048C5.8947 4.04369 5.81479 4.08443 5.75331 4.14665L4.13331 5.72665C4.07109 5.78813 4.03035 5.86803 4.01714 5.9545C4.00393 6.04097 4.01896 6.12939 4.05998 6.20665L5.13998 8.20665C4.86002 8.70704 4.63643 9.23695 4.47331 9.78665L2.26665 10.4533C2.18393 10.4789 2.11152 10.5301 2.05996 10.5997C2.0084 10.6692 1.98038 10.7534 1.97998 10.84V13.0933C1.98038 13.1799 2.0084 13.2641 2.05996 13.3336C2.11152 13.4032 2.18393 13.4544 2.26665 13.48L4.48665 14.1466C4.65154 14.6872 4.8751 15.2081 5.15331 15.7L4.05998 17.7933C4.01896 17.8706 4.00393 17.959 4.01714 18.0455C4.03035 18.1319 4.07109 18.2118 4.13331 18.2733L5.72665 19.8666C5.78813 19.9289 5.86803 19.9696 5.9545 19.9828C6.04097 19.996 6.12939 19.981 6.20665 19.94L8.26665 18.84C8.75396 19.1029 9.26799 19.313 9.79998 19.4666L10.4666 21.7133C10.4922 21.796 10.5435 21.8684 10.613 21.92C10.6826 21.9716 10.7667 21.9996 10.8533 22H13.1066C13.1932 21.9996 13.2774 21.9716 13.3469 21.92C13.4165 21.8684 13.4678 21.796 13.4933 21.7133L14.16 19.46C14.6874 19.3056 15.197 19.0955 15.68 18.8333L17.7533 19.94C17.8306 19.981 17.919 19.996 18.0055 19.9828C18.0919 19.9696 18.1718 19.9289 18.2333 19.8666L19.8266 18.2733C19.8889 18.2118 19.9296 18.1319 19.9428 18.0455C19.956 17.959 19.941 17.8706 19.9 17.7933L18.7933 15.7266C19.0582 15.2418 19.2705 14.73 19.4266 14.2L21.6733 13.5333C21.756 13.5078 21.8284 13.4565 21.88 13.3869C21.9316 13.3174 21.9596 13.2332 21.96 13.1466V10.8733C21.9639 10.7904 21.9424 10.7083 21.8983 10.638C21.8542 10.5677 21.7897 10.5125 21.7133 10.48ZM12 15.6666C11.2748 15.6666 10.5659 15.4516 9.96289 15.0487C9.35991 14.6458 8.88994 14.0731 8.61242 13.4032C8.3349 12.7332 8.26229 11.9959 8.40377 11.2846C8.54525 10.5734 8.89446 9.92005 9.40725 9.40726C9.92005 8.89446 10.5734 8.54525 11.2846 8.40377C11.9959 8.26229 12.7332 8.3349 13.4032 8.61242C14.0731 8.88994 14.6458 9.35991 15.0487 9.96289C15.4516 10.5659 15.6666 11.2748 15.6666 12C15.6666 12.9724 15.2803 13.9051 14.5927 14.5927C13.9051 15.2803 12.9724 15.6666 12 15.6666Z" fill="#BDBDBD"/>
</svg>
